<svg width="24" height="24" viewBox="0 0 24 24" fill="none" xmlns="http://www.w3.org/2000/svg">
<path d="M8.75998 22.27H8.88999C13.33 22.27 15.47 20.52 15.84 16.6C15.88 16.19 15.58 15.82 15.16 15.78C14.76 15.74 14.38 16.05 14.34 16.46C14.05 19.6 12.57 20.77 8.87998 20.77H8.74998C4.67999 20.77 3.23998 19.33 3.23998 15.26V8.74001C3.23998 4.67001 4.67999 3.23001 8.74998 3.23001H8.87998C12.59 3.23001 14.07 4.42001 14.34 7.62001C14.39 8.03001 14.74 8.34001 15.16 8.30001C15.58 8.27001 15.88 7.90001 15.85 7.49001C15.51 3.51001 13.36 1.73001 8.88999 1.73001H8.75998C3.84999 1.73001 1.74998 3.83001 1.74998 8.74001V15.26C1.74998 20.17 3.84999 22.27 8.75998 22.27Z" fill="#78808C"/>
<path d="M9 12.75H20.38C20.79 12.75 21.13 12.41 21.13 12C21.13 11.59 20.79 11.25 20.38 11.25H9C8.59 11.25 8.25 11.59 8.25 12C8.25 12.41 8.59 12.75 9 12.75Z" fill="#78808C"/>
<path d="M18.1501 16.1C18.3401 16.1 18.5301 16.03 18.6801 15.88L22.0301 12.53C22.3201 12.24 22.3201 11.76 22.0301 11.47L18.6801 8.12C18.3901 7.83 17.9101 7.83 17.6201 8.12C17.3301 8.41 17.3301 8.89 17.6201 9.18L20.4401 12L17.6201 14.82C17.3301 15.11 17.3301 15.59 17.6201 15.88C17.7601 16.03 17.9601 16.1 18.1501 16.1Z" fill="#78808C"/>
</svg>
