<svg width="24" height="24" viewBox="0 0 24 24" fill="none" xmlns="http://www.w3.org/2000/svg">
<path d="M2 7.25H8C8.41 7.25 8.75 6.91 8.75 6.5C8.75 6.09 8.41 5.75 8 5.75H2C1.59 5.75 1.25 6.09 1.25 6.5C1.25 6.91 1.59 7.25 2 7.25Z" fill="#78808C"/>
<path d="M18 7.25H22C22.41 7.25 22.75 6.91 22.75 6.5C22.75 6.09 22.41 5.75 22 5.75H18C17.59 5.75 17.25 6.09 17.25 6.5C17.25 6.91 17.59 7.25 18 7.25Z" fill="#78808C"/>
<path d="M14 10.75C16.34 10.75 18.25 8.84 18.25 6.5C18.25 4.16 16.34 2.25 14 2.25C11.66 2.25 9.75 4.16 9.75 6.5C9.75 8.84 11.66 10.75 14 10.75ZM14 3.75C15.52 3.75 16.75 4.98 16.75 6.5C16.75 8.02 15.52 9.25 14 9.25C12.48 9.25 11.25 8.02 11.25 6.5C11.25 4.98 12.48 3.75 14 3.75Z" fill="#78808C"/>
<path d="M2 18.25H6C6.41 18.25 6.75 17.91 6.75 17.5C6.75 17.09 6.41 16.75 6 16.75H2C1.59 16.75 1.25 17.09 1.25 17.5C1.25 17.91 1.59 18.25 2 18.25Z" fill="#78808C"/>
<path d="M16 18.25H22C22.41 18.25 22.75 17.91 22.75 17.5C22.75 17.09 22.41 16.75 22 16.75H16C15.59 16.75 15.25 17.09 15.25 17.5C15.25 17.91 15.59 18.25 16 18.25Z" fill="#78808C"/>
<path d="M10 21.75C12.34 21.75 14.25 19.84 14.25 17.5C14.25 15.16 12.34 13.25 10 13.25C7.66 13.25 5.75 15.16 5.75 17.5C5.75 19.84 7.66 21.75 10 21.75ZM10 14.75C11.52 14.75 12.75 15.98 12.75 17.5C12.75 19.02 11.52 20.25 10 20.25C8.48 20.25 7.25 19.02 7.25 17.5C7.25 15.98 8.48 14.75 10 14.75Z" fill="#78808C"/>
</svg>
