<svg width="22" height="22" viewBox="0 0 22 22" fill="none" xmlns="http://www.w3.org/2000/svg">
<path d="M11.46 21.75C11.29 21.75 11.12 21.75 10.95 21.74C5.35001 21.49 0.670009 16.98 0.280009 11.48C-0.0599907 6.75999 2.67001 2.34999 7.07001 0.499992C8.32001 -0.0200076 8.98001 0.379992 9.26001 0.669992C9.54001 0.949992 9.93001 1.59999 9.41001 2.78999C8.95001 3.84999 8.72001 4.97999 8.73001 6.13999C8.75001 10.57 12.43 14.33 16.92 14.51C17.57 14.54 18.21 14.49 18.83 14.38C20.15 14.14 20.7 14.67 20.91 15.01C21.12 15.35 21.36 16.08 20.56 17.16C18.44 20.06 15.07 21.75 11.46 21.75ZM1.77001 11.37C2.11001 16.13 6.17001 20.03 11.01 20.24C14.3 20.4 17.42 18.9 19.34 16.28C19.49 16.07 19.56 15.92 19.59 15.84C19.5 15.83 19.34 15.82 19.09 15.87C18.36 16 17.6 16.05 16.85 16.02C11.57 15.81 7.25001 11.38 7.22001 6.15999C7.22001 4.77999 7.49001 3.44999 8.04001 2.19999C8.14001 1.97999 8.16001 1.82999 8.17001 1.74999C8.08001 1.74999 7.92001 1.76999 7.66001 1.87999C3.85001 3.47999 1.49001 7.29999 1.77001 11.37Z" fill="#78808C"/>
</svg>
