<svg width="18" height="18" viewBox="0 0 18 18" fill="none" xmlns="http://www.w3.org/2000/svg">
<path d="M12.75 17.0625H5.25C2.5125 17.0625 0.9375 15.4875 0.9375 12.75V9C0.9375 6.2625 2.5125 4.6875 5.25 4.6875H12.75C15.4875 4.6875 17.0625 6.2625 17.0625 9V12.75C17.0625 15.4875 15.4875 17.0625 12.75 17.0625ZM5.25 5.8125C3.105 5.8125 2.0625 6.855 2.0625 9V12.75C2.0625 14.895 3.105 15.9375 5.25 15.9375H12.75C14.895 15.9375 15.9375 14.895 15.9375 12.75V9C15.9375 6.855 14.895 5.8125 12.75 5.8125H5.25Z" fill="white"/>
<path d="M13.5 3.9375H4.5C4.1925 3.9375 3.9375 3.6825 3.9375 3.375C3.9375 3.0675 4.1925 2.8125 4.5 2.8125H13.5C13.8075 2.8125 14.0625 3.0675 14.0625 3.375C14.0625 3.6825 13.8075 3.9375 13.5 3.9375Z" fill="white"/>
<path d="M11.25 2.0625H6.75C6.4425 2.0625 6.1875 1.8075 6.1875 1.5C6.1875 1.1925 6.4425 0.9375 6.75 0.9375H11.25C11.5575 0.9375 11.8125 1.1925 11.8125 1.5C11.8125 1.8075 11.5575 2.0625 11.25 2.0625Z" fill="white"/>
<path d="M6.66751 14.895C5.79001 14.895 5.07751 14.1825 5.07751 13.305C5.07751 12.4275 5.79001 11.715 6.66751 11.715C7.54501 11.715 8.25751 12.4275 8.25751 13.305C8.25751 14.1825 7.54501 14.895 6.66751 14.895ZM6.66751 12.84C6.41251 12.84 6.20251 13.05 6.20251 13.305C6.20251 13.56 6.41251 13.77 6.66751 13.77C6.92251 13.77 7.13251 13.56 7.13251 13.305C7.13251 13.05 6.92251 12.84 6.66751 12.84Z" fill="white"/>
<path d="M7.69482 13.8675C7.38732 13.8675 7.13232 13.6125 7.13232 13.305V9.17249C7.13232 8.51249 7.54484 7.97999 8.17484 7.80749L10.2298 7.24499C10.8823 7.06499 11.2948 7.23752 11.5198 7.41752C11.7448 7.59002 12.0148 7.94249 12.0148 8.60999V12.6225C12.0148 12.93 11.7598 13.185 11.4523 13.185C11.1448 13.185 10.8898 12.93 10.8898 12.6225V8.60999C10.8898 8.39999 10.8448 8.31752 10.8298 8.31002C10.8148 8.30252 10.7248 8.2725 10.5148 8.3325L8.4673 8.895C8.2798 8.9475 8.24982 9.075 8.24982 9.18V13.3125C8.25732 13.6125 8.00232 13.8675 7.69482 13.8675Z" fill="white"/>
<path d="M10.4325 14.2125C9.55503 14.2125 8.84253 13.5 8.84253 12.6225C8.84253 11.745 9.55503 11.0325 10.4325 11.0325C11.31 11.0325 12.0226 11.745 12.0226 12.6225C12.0226 13.5 11.31 14.2125 10.4325 14.2125ZM10.4325 12.1575C10.1775 12.1575 9.96753 12.3675 9.96753 12.6225C9.96753 12.8775 10.1775 13.0875 10.4325 13.0875C10.6875 13.0875 10.8976 12.8775 10.8976 12.6225C10.8976 12.3675 10.6875 12.1575 10.4325 12.1575Z" fill="white"/>
<path d="M7.69495 10.935C7.44745 10.935 7.22242 10.77 7.15492 10.5225C7.07242 10.2225 7.25245 9.91498 7.55245 9.83248L11.31 8.80498C11.6175 8.72248 11.9174 8.9025 11.9999 9.2025C12.0824 9.5025 11.9024 9.80999 11.6024 9.89249L7.84496 10.92C7.79246 10.9275 7.74745 10.935 7.69495 10.935Z" fill="white"/>
</svg>
