<svg width="18" height="18" viewBox="0 0 18 18" fill="none" xmlns="http://www.w3.org/2000/svg">
<path d="M13.7175 17.0625H4.28249C1.73249 17.0625 1.59749 15.66 1.48499 14.5275L1.18499 10.77C1.11749 10.0425 1.32749 9.315 1.79249 8.73C2.34749 8.055 3.13499 7.6875 3.98249 7.6875H14.0175C14.85 7.6875 15.6375 8.055 16.17 8.6925L16.2975 8.865C16.7025 9.42 16.8825 10.095 16.815 10.7775L16.515 14.52C16.4025 15.66 16.2675 17.0625 13.7175 17.0625ZM3.98249 8.8125C3.47999 8.8125 2.99999 9.0375 2.68499 9.4275L2.63249 9.48C2.39249 9.7875 2.26499 10.2225 2.30999 10.6725L2.60999 14.43C2.71499 15.525 2.75999 15.9375 4.28249 15.9375H13.7175C15.2475 15.9375 15.285 15.525 15.39 14.4225L15.69 10.665C15.735 10.2225 15.6075 9.78 15.315 9.435L15.24 9.345C14.9025 8.9925 14.475 8.8125 14.01 8.8125H3.98249Z" fill="white"/>
<path d="M15.375 9.165C15.0675 9.165 14.8125 8.91 14.8125 8.6025V7.26C14.8125 5.025 14.4225 4.635 12.1875 4.635H10.275C9.4275 4.635 9.135 4.335 8.8125 3.9075L7.845 2.625C7.515 2.19 7.44 2.085 6.765 2.085H5.8125C3.5775 2.085 3.1875 2.475 3.1875 4.71V8.5725C3.1875 8.88 2.9325 9.135 2.625 9.135C2.3175 9.135 2.0625 8.88 2.0625 8.5725V4.71C2.0625 1.8375 2.94 0.959999 5.8125 0.959999H6.7725C7.9275 0.959999 8.2875 1.335 8.7525 1.95L9.7125 3.225C9.915 3.495 9.93 3.51 10.2825 3.51H12.195C15.0675 3.51 15.945 4.3875 15.945 7.26V8.6025C15.9375 8.91 15.6825 9.165 15.375 9.165Z" fill="white"/>
<path d="M10.9275 13.3125H7.07251C6.76501 13.3125 6.51001 13.0575 6.51001 12.75C6.51001 12.4425 6.76501 12.1875 7.07251 12.1875H10.9275C11.235 12.1875 11.49 12.4425 11.49 12.75C11.49 13.0575 11.2425 13.3125 10.9275 13.3125Z" fill="white"/>
</svg>
