<svg width="24" height="24" viewBox="0 0 24 24" fill="none" xmlns="http://www.w3.org/2000/svg">
<path d="M22.75 9V15C22.75 20.43 20.43 22.75 15 22.75H9C3.57 22.75 1.25 20.43 1.25 15L1.25 9C1.25 3.57 3.57 1.25 9 1.25H15C20.43 1.25 22.75 3.57 22.75 9ZM2.75 15C2.75 19.61 4.39 21.25 9 21.25H15C19.61 21.25 21.25 19.61 21.25 15V9C21.25 4.39 19.61 2.75 15 2.75H9C4.39 2.75 2.75 4.39 2.75 9L2.75 15Z" fill="#78808C"/>
<path d="M13 12C13 12.56 12.55 13 12 13C11.45 13 11 12.55 11 12C11 11.45 11.45 11 12 11C12.55 11 13 11.44 13 12Z" fill="#78808C"/>
<path d="M13 8C13 8.56 12.55 9 12 9C11.45 9 11 8.55 11 8C11 7.45 11.45 7 12 7C12.55 7 13 7.44 13 8Z" fill="#78808C"/>
<path d="M13 16C13 16.56 12.55 17 12 17C11.45 17 11 16.55 11 16C11 15.45 11.45 15 12 15C12.55 15 13 15.44 13 16Z" fill="#78808C"/>
</svg>
