<svg width="491" height="44" viewBox="0 0 491 44" fill="none" xmlns="http://www.w3.org/2000/svg">
<rect x="28.7633" y="18.0186" width="2.09187" height="3.98144" fill="#23AEFC"/>
<rect x="7.1908" y="2.90955" width="2.09187" height="19.0905" fill="#23AEFC"/>
<rect x="64.7173" y="4.18561" width="2.09187" height="17.8144" fill="#23AEFC"/>
<rect x="10.7862" y="11.8933" width="2.09187" height="10.1067" fill="#23AEFC"/>
<rect x="46.7403" y="5.51276" width="2.09187" height="16.4872" fill="#23AEFC"/>
<rect x="35.954" width="2.09187" height="22" fill="#23AEFC"/>
<rect x="71.9081" y="3.62415" width="2.09187" height="18.3759" fill="#23AEFC"/>
<rect x="17.977" y="5.51276" width="2.09187" height="16.4872" fill="#23AEFC"/>
<rect x="53.9311" y="1.37823" width="2.09187" height="20.6218" fill="#23AEFC"/>
<rect x="32.3586" y="8.47333" width="2.09187" height="13.5267" fill="#23AEFC"/>
<rect x="68.3127" y="9.54523" width="2.09187" height="12.4548" fill="#23AEFC"/>
<rect x="14.3816" y="8.47333" width="2.09187" height="13.5267" fill="#23AEFC"/>
<rect x="50.3357" y="10.3109" width="2.09187" height="11.6891" fill="#23AEFC"/>
<rect x="39.5495" y="1.99072" width="2.09187" height="20.0093" fill="#23AEFC"/>
<rect x="21.5724" y="7.3504" width="2.09187" height="14.6496" fill="#23AEFC"/>
<rect y="10.3109" width="2.09187" height="11.6891" fill="#23AEFC"/>
<rect x="57.5265" y="8.47333" width="2.09187" height="13.5267" fill="#23AEFC"/>
<rect x="43.1448" y="10.3109" width="2.09187" height="11.6891" fill="#23AEFC"/>
<rect x="25.1678" y="12.71" width="2.09187" height="9.29002" fill="#23AEFC"/>
<rect x="3.5954" y="15.3132" width="2.09187" height="6.68677" fill="#23AEFC"/>
<rect x="61.1219" y="11.8933" width="2.09187" height="10.1067" fill="#23AEFC"/>
<rect x="179.763" y="18.0186" width="2.09187" height="3.98144" fill="#23AEFC"/>
<rect x="158.191" y="2.90955" width="2.09187" height="19.0905" fill="#23AEFC"/>
<rect x="215.717" y="4.18561" width="2.09187" height="17.8144" fill="#23AEFC"/>
<rect x="161.786" y="11.8933" width="2.09187" height="10.1067" fill="#23AEFC"/>
<rect x="197.74" y="5.51276" width="2.09187" height="16.4872" fill="#23AEFC"/>
<rect x="186.954" width="2.09187" height="22" fill="#23AEFC"/>
<rect x="222.908" y="3.62415" width="2.09187" height="18.3759" fill="#23AEFC"/>
<rect x="168.977" y="5.51276" width="2.09187" height="16.4872" fill="#23AEFC"/>
<rect x="204.931" y="1.37823" width="2.09187" height="20.6218" fill="#23AEFC"/>
<rect x="183.359" y="8.47333" width="2.09187" height="13.5267" fill="#23AEFC"/>
<rect x="219.313" y="9.54523" width="2.09187" height="12.4548" fill="#23AEFC"/>
<rect x="165.382" y="8.47333" width="2.09187" height="13.5267" fill="#23AEFC"/>
<rect x="201.336" y="10.3109" width="2.09187" height="11.6891" fill="#23AEFC"/>
<rect x="190.549" y="1.99072" width="2.09187" height="20.0093" fill="#23AEFC"/>
<rect x="172.572" y="7.3504" width="2.09187" height="14.6496" fill="#23AEFC"/>
<rect x="151" y="10.3109" width="2.09187" height="11.6891" fill="#23AEFC"/>
<rect x="208.526" y="8.47333" width="2.09187" height="13.5267" fill="#23AEFC"/>
<rect x="194.145" y="10.3109" width="2.09187" height="11.6891" fill="#23AEFC"/>
<rect x="176.168" y="12.71" width="2.09187" height="9.29002" fill="#23AEFC"/>
<rect x="154.595" y="15.3132" width="2.09187" height="6.68677" fill="#23AEFC"/>
<rect x="212.122" y="11.8933" width="2.09187" height="10.1067" fill="#23AEFC"/>
<rect x="405.763" y="18.0186" width="2.09187" height="3.98144" fill="white"/>
<rect x="384.191" y="2.90955" width="2.09187" height="19.0905" fill="white"/>
<rect x="441.717" y="4.18561" width="2.09187" height="17.8144" fill="white"/>
<rect x="387.786" y="11.8933" width="2.09187" height="10.1067" fill="white"/>
<rect x="423.74" y="5.51276" width="2.09187" height="16.4872" fill="white"/>
<rect x="412.954" width="2.09187" height="22" fill="white"/>
<rect x="448.908" y="3.62415" width="2.09187" height="18.3759" fill="white"/>
<rect x="394.977" y="5.51276" width="2.09187" height="16.4872" fill="white"/>
<rect x="430.931" y="1.37823" width="2.09187" height="20.6218" fill="white"/>
<rect x="409.359" y="8.47333" width="2.09187" height="13.5267" fill="white"/>
<rect x="445.313" y="9.54523" width="2.09187" height="12.4548" fill="white"/>
<rect x="391.382" y="8.47333" width="2.09187" height="13.5267" fill="white"/>
<rect x="427.336" y="10.3109" width="2.09187" height="11.6891" fill="white"/>
<rect x="416.549" y="1.99072" width="2.09187" height="20.0093" fill="white"/>
<rect x="398.572" y="7.3504" width="2.09187" height="14.6496" fill="white"/>
<rect x="377" y="10.3109" width="2.09187" height="11.6891" fill="white"/>
<rect x="434.526" y="8.47333" width="2.09187" height="13.5267" fill="white"/>
<rect x="420.145" y="10.3109" width="2.09187" height="11.6891" fill="white"/>
<rect x="402.168" y="12.71" width="2.09187" height="9.29002" fill="white"/>
<rect x="380.595" y="15.3132" width="2.09187" height="6.68677" fill="white"/>
<rect x="438.122" y="11.8933" width="2.09187" height="10.1067" fill="white"/>
<rect x="480.763" y="18.0186" width="2.09187" height="3.98144" fill="white"/>
<rect x="459.191" y="2.90955" width="2.09187" height="19.0905" fill="white"/>
<rect x="462.786" y="11.8933" width="2.09187" height="10.1067" fill="white"/>
<rect x="487.954" width="2.09187" height="22" fill="white"/>
<rect x="469.977" y="5.51276" width="2.09187" height="16.4872" fill="white"/>
<rect x="484.359" y="8.47333" width="2.09187" height="13.5267" fill="white"/>
<rect x="466.382" y="8.47333" width="2.09187" height="13.5267" fill="white"/>
<rect x="473.572" y="7.3504" width="2.09187" height="14.6496" fill="white"/>
<rect x="452" y="10.3109" width="2.09187" height="11.6891" fill="white"/>
<rect x="477.168" y="12.71" width="2.09187" height="9.29002" fill="white"/>
<rect x="455.595" y="15.3132" width="2.09187" height="6.68677" fill="white"/>
<rect x="104.263" y="18.0186" width="2.09187" height="3.98144" fill="#23AEFC"/>
<rect x="82.6908" y="2.90955" width="2.09187" height="19.0905" fill="#23AEFC"/>
<rect x="140.217" y="4.18561" width="2.09187" height="17.8144" fill="#23AEFC"/>
<rect x="86.2862" y="11.8933" width="2.09187" height="10.1067" fill="#23AEFC"/>
<rect x="122.24" y="5.51276" width="2.09187" height="16.4872" fill="#23AEFC"/>
<rect x="111.454" width="2.09187" height="22" fill="#23AEFC"/>
<rect x="147.408" y="3.62415" width="2.09187" height="18.3759" fill="#23AEFC"/>
<rect x="93.477" y="5.51276" width="2.09187" height="16.4872" fill="#23AEFC"/>
<rect x="129.431" y="1.37823" width="2.09187" height="20.6218" fill="#23AEFC"/>
<rect x="107.859" y="8.47333" width="2.09187" height="13.5267" fill="#23AEFC"/>
<rect x="143.813" y="9.54523" width="2.09187" height="12.4548" fill="#23AEFC"/>
<rect x="89.8816" y="8.47333" width="2.09187" height="13.5267" fill="#23AEFC"/>
<rect x="125.836" y="10.3109" width="2.09187" height="11.6891" fill="#23AEFC"/>
<rect x="115.049" y="1.99072" width="2.09187" height="20.0093" fill="#23AEFC"/>
<rect x="97.0724" y="7.3504" width="2.09187" height="14.6496" fill="#23AEFC"/>
<rect x="75.5" y="10.3109" width="2.09187" height="11.6891" fill="#23AEFC"/>
<rect x="133.026" y="8.47333" width="2.09187" height="13.5267" fill="#23AEFC"/>
<rect x="118.645" y="10.3109" width="2.09187" height="11.6891" fill="#23AEFC"/>
<rect x="100.668" y="12.71" width="2.09187" height="9.29002" fill="#23AEFC"/>
<rect x="79.0954" y="15.3132" width="2.09187" height="6.68677" fill="#23AEFC"/>
<rect x="136.622" y="11.8933" width="2.09187" height="10.1067" fill="#23AEFC"/>
<rect x="330.263" y="18.0186" width="2.09187" height="3.98144" fill="white"/>
<rect x="308.691" y="2.90955" width="2.09187" height="19.0905" fill="white"/>
<rect x="366.217" y="4.18561" width="2.09187" height="17.8144" fill="white"/>
<rect x="312.286" y="11.8933" width="2.09187" height="10.1067" fill="white"/>
<rect x="348.24" y="5.51276" width="2.09187" height="16.4872" fill="white"/>
<rect x="337.454" width="2.09187" height="22" fill="white"/>
<rect x="373.408" y="3.62415" width="2.09187" height="18.3759" fill="white"/>
<rect x="319.477" y="5.51276" width="2.09187" height="16.4872" fill="white"/>
<rect x="355.431" y="1.37823" width="2.09187" height="20.6218" fill="white"/>
<rect x="333.859" y="8.47333" width="2.09187" height="13.5267" fill="white"/>
<rect x="369.813" y="9.54523" width="2.09187" height="12.4548" fill="white"/>
<rect x="315.882" y="8.47333" width="2.09187" height="13.5267" fill="white"/>
<rect x="351.836" y="10.3109" width="2.09187" height="11.6891" fill="white"/>
<rect x="341.049" y="1.99072" width="2.09187" height="20.0093" fill="white"/>
<rect x="323.072" y="7.3504" width="2.09187" height="14.6496" fill="white"/>
<rect x="301.5" y="10.3109" width="2.09187" height="11.6891" fill="white"/>
<rect x="359.026" y="8.47333" width="2.09187" height="13.5267" fill="white"/>
<rect x="344.645" y="10.3109" width="2.09187" height="11.6891" fill="white"/>
<rect x="326.668" y="12.71" width="2.09187" height="9.29002" fill="white"/>
<rect x="305.095" y="15.3132" width="2.09187" height="6.68677" fill="white"/>
<rect x="362.622" y="11.8933" width="2.09187" height="10.1067" fill="white"/>
<rect x="255.263" y="18.0186" width="2.09187" height="3.98144" fill="white"/>
<rect x="233.691" y="2.90955" width="2.09187" height="19.0905" fill="white"/>
<rect x="291.217" y="4.18561" width="2.09187" height="17.8144" fill="white"/>
<rect x="237.286" y="11.8933" width="2.09187" height="10.1067" fill="white"/>
<rect x="273.24" y="5.51276" width="2.09187" height="16.4872" fill="white"/>
<rect x="262.454" width="2.09187" height="22" fill="white"/>
<rect x="298.408" y="3.62415" width="2.09187" height="18.3759" fill="white"/>
<rect x="244.477" y="5.51276" width="2.09187" height="16.4872" fill="white"/>
<rect x="280.431" y="1.37823" width="2.09187" height="20.6218" fill="white"/>
<rect x="258.859" y="8.47333" width="2.09187" height="13.5267" fill="white"/>
<rect x="294.813" y="9.54523" width="2.09187" height="12.4548" fill="white"/>
<rect x="240.882" y="8.47333" width="2.09187" height="13.5267" fill="white"/>
<rect x="276.836" y="10.3109" width="2.09187" height="11.6891" fill="white"/>
<rect x="266.049" y="1.99072" width="2.09187" height="20.0093" fill="white"/>
<rect x="248.072" y="7.3504" width="2.09187" height="14.6496" fill="white"/>
<rect x="226.5" y="10.3109" width="2.09187" height="11.6891" fill="white"/>
<rect x="284.026" y="8.47333" width="2.09187" height="13.5267" fill="white"/>
<rect x="269.645" y="10.3109" width="2.09187" height="11.6891" fill="white"/>
<rect x="251.668" y="12.71" width="2.09187" height="9.29002" fill="white"/>
<rect x="230.095" y="15.3132" width="2.09187" height="6.68677" fill="white"/>
<rect x="287.622" y="11.8933" width="2.09187" height="10.1067" fill="white"/>
<rect width="2.09187" height="3.98144" transform="matrix(1 0 0 -1 28.7633 25.9814)" fill="#23AEFC"/>
<rect width="2.09187" height="19.0905" transform="matrix(1 0 0 -1 7.1908 41.0905)" fill="#23AEFC"/>
<rect width="2.09187" height="17.8144" transform="matrix(1 0 0 -1 64.7173 39.8144)" fill="#23AEFC"/>
<rect width="2.09187" height="10.1067" transform="matrix(1 0 0 -1 10.7862 32.1067)" fill="#23AEFC"/>
<rect width="2.09187" height="16.4872" transform="matrix(1 0 0 -1 46.7403 38.4872)" fill="#23AEFC"/>
<rect width="2.09187" height="22" transform="matrix(1 0 0 -1 35.954 44)" fill="#23AEFC"/>
<rect width="2.09187" height="18.3759" transform="matrix(1 0 0 -1 71.9081 40.3759)" fill="#23AEFC"/>
<rect width="2.09187" height="16.4872" transform="matrix(1 0 0 -1 17.977 38.4872)" fill="#23AEFC"/>
<rect width="2.09187" height="20.6218" transform="matrix(1 0 0 -1 53.9311 42.6218)" fill="#23AEFC"/>
<rect width="2.09187" height="13.5267" transform="matrix(1 0 0 -1 32.3586 35.5267)" fill="#23AEFC"/>
<rect width="2.09187" height="12.4548" transform="matrix(1 0 0 -1 68.3127 34.4548)" fill="#23AEFC"/>
<rect width="2.09187" height="13.5267" transform="matrix(1 0 0 -1 14.3816 35.5267)" fill="#23AEFC"/>
<rect width="2.09187" height="11.6891" transform="matrix(1 0 0 -1 50.3357 33.6891)" fill="#23AEFC"/>
<rect width="2.09187" height="20.0093" transform="matrix(1 0 0 -1 39.5495 42.0093)" fill="#23AEFC"/>
<rect width="2.09187" height="14.6496" transform="matrix(1 0 0 -1 21.5724 36.6496)" fill="#23AEFC"/>
<rect width="2.09187" height="11.6891" transform="matrix(1 0 0 -1 0 33.6891)" fill="#23AEFC"/>
<rect width="2.09187" height="13.5267" transform="matrix(1 0 0 -1 57.5265 35.5267)" fill="#23AEFC"/>
<rect width="2.09187" height="11.6891" transform="matrix(1 0 0 -1 43.1448 33.6891)" fill="#23AEFC"/>
<rect width="2.09187" height="9.29002" transform="matrix(1 0 0 -1 25.1678 31.29)" fill="#23AEFC"/>
<rect width="2.09187" height="6.68677" transform="matrix(1 0 0 -1 3.5954 28.6868)" fill="#23AEFC"/>
<rect width="2.09187" height="10.1067" transform="matrix(1 0 0 -1 61.1219 32.1067)" fill="#23AEFC"/>
<rect width="2.09187" height="3.98144" transform="matrix(1 0 0 -1 179.763 25.9814)" fill="#23AEFC"/>
<rect width="2.09187" height="19.0905" transform="matrix(1 0 0 -1 158.191 41.0905)" fill="#23AEFC"/>
<rect width="2.09187" height="17.8144" transform="matrix(1 0 0 -1 215.717 39.8144)" fill="#23AEFC"/>
<rect width="2.09187" height="10.1067" transform="matrix(1 0 0 -1 161.786 32.1067)" fill="#23AEFC"/>
<rect width="2.09187" height="16.4872" transform="matrix(1 0 0 -1 197.74 38.4872)" fill="#23AEFC"/>
<rect width="2.09187" height="22" transform="matrix(1 0 0 -1 186.954 44)" fill="#23AEFC"/>
<rect width="2.09187" height="18.3759" transform="matrix(1 0 0 -1 222.908 40.3759)" fill="#23AEFC"/>
<rect width="2.09187" height="16.4872" transform="matrix(1 0 0 -1 168.977 38.4872)" fill="#23AEFC"/>
<rect width="2.09187" height="20.6218" transform="matrix(1 0 0 -1 204.931 42.6218)" fill="#23AEFC"/>
<rect width="2.09187" height="13.5267" transform="matrix(1 0 0 -1 183.359 35.5267)" fill="#23AEFC"/>
<rect width="2.09187" height="12.4548" transform="matrix(1 0 0 -1 219.313 34.4548)" fill="#23AEFC"/>
<rect width="2.09187" height="13.5267" transform="matrix(1 0 0 -1 165.382 35.5267)" fill="#23AEFC"/>
<rect width="2.09187" height="11.6891" transform="matrix(1 0 0 -1 201.336 33.6891)" fill="#23AEFC"/>
<rect width="2.09187" height="20.0093" transform="matrix(1 0 0 -1 190.549 42.0093)" fill="#23AEFC"/>
<rect width="2.09187" height="14.6496" transform="matrix(1 0 0 -1 172.572 36.6496)" fill="#23AEFC"/>
<rect width="2.09187" height="11.6891" transform="matrix(1 0 0 -1 151 33.6891)" fill="#23AEFC"/>
<rect width="2.09187" height="13.5267" transform="matrix(1 0 0 -1 208.526 35.5267)" fill="#23AEFC"/>
<rect width="2.09187" height="11.6891" transform="matrix(1 0 0 -1 194.145 33.6891)" fill="#23AEFC"/>
<rect width="2.09187" height="9.29002" transform="matrix(1 0 0 -1 176.168 31.29)" fill="#23AEFC"/>
<rect width="2.09187" height="6.68677" transform="matrix(1 0 0 -1 154.595 28.6868)" fill="#23AEFC"/>
<rect width="2.09187" height="10.1067" transform="matrix(1 0 0 -1 212.122 32.1067)" fill="#23AEFC"/>
<rect width="2.09187" height="3.98144" transform="matrix(1 0 0 -1 405.763 25.9814)" fill="white"/>
<rect width="2.09187" height="19.0905" transform="matrix(1 0 0 -1 384.191 41.0905)" fill="white"/>
<rect width="2.09187" height="17.8144" transform="matrix(1 0 0 -1 441.717 39.8144)" fill="white"/>
<rect width="2.09187" height="10.1067" transform="matrix(1 0 0 -1 387.786 32.1067)" fill="white"/>
<rect width="2.09187" height="16.4872" transform="matrix(1 0 0 -1 423.74 38.4872)" fill="white"/>
<rect width="2.09187" height="22" transform="matrix(1 0 0 -1 412.954 44)" fill="white"/>
<rect width="2.09187" height="18.3759" transform="matrix(1 0 0 -1 448.908 40.3759)" fill="white"/>
<rect width="2.09187" height="16.4872" transform="matrix(1 0 0 -1 394.977 38.4872)" fill="white"/>
<rect width="2.09187" height="20.6218" transform="matrix(1 0 0 -1 430.931 42.6218)" fill="white"/>
<rect width="2.09187" height="13.5267" transform="matrix(1 0 0 -1 409.359 35.5267)" fill="white"/>
<rect width="2.09187" height="12.4548" transform="matrix(1 0 0 -1 445.313 34.4548)" fill="white"/>
<rect width="2.09187" height="13.5267" transform="matrix(1 0 0 -1 391.382 35.5267)" fill="white"/>
<rect width="2.09187" height="11.6891" transform="matrix(1 0 0 -1 427.336 33.6891)" fill="white"/>
<rect width="2.09187" height="20.0093" transform="matrix(1 0 0 -1 416.549 42.0093)" fill="white"/>
<rect width="2.09187" height="14.6496" transform="matrix(1 0 0 -1 398.572 36.6496)" fill="white"/>
<rect width="2.09187" height="11.6891" transform="matrix(1 0 0 -1 377 33.6891)" fill="white"/>
<rect width="2.09187" height="13.5267" transform="matrix(1 0 0 -1 434.526 35.5267)" fill="white"/>
<rect width="2.09187" height="11.6891" transform="matrix(1 0 0 -1 420.145 33.6891)" fill="white"/>
<rect width="2.09187" height="9.29002" transform="matrix(1 0 0 -1 402.168 31.29)" fill="white"/>
<rect width="2.09187" height="6.68677" transform="matrix(1 0 0 -1 380.595 28.6868)" fill="white"/>
<rect width="2.09187" height="10.1067" transform="matrix(1 0 0 -1 438.122 32.1067)" fill="white"/>
<rect width="2.09187" height="3.98144" transform="matrix(1 0 0 -1 480.763 25.9814)" fill="white"/>
<rect width="2.09187" height="19.0905" transform="matrix(1 0 0 -1 459.191 41.0905)" fill="white"/>
<rect width="2.09187" height="10.1067" transform="matrix(1 0 0 -1 462.786 32.1067)" fill="white"/>
<rect width="2.09187" height="22" transform="matrix(1 0 0 -1 487.954 44)" fill="white"/>
<rect width="2.09187" height="16.4872" transform="matrix(1 0 0 -1 469.977 38.4872)" fill="white"/>
<rect width="2.09187" height="13.5267" transform="matrix(1 0 0 -1 484.359 35.5267)" fill="white"/>
<rect width="2.09187" height="13.5267" transform="matrix(1 0 0 -1 466.382 35.5267)" fill="white"/>
<rect width="2.09187" height="14.6496" transform="matrix(1 0 0 -1 473.572 36.6496)" fill="white"/>
<rect width="2.09187" height="11.6891" transform="matrix(1 0 0 -1 452 33.6891)" fill="white"/>
<rect width="2.09187" height="9.29002" transform="matrix(1 0 0 -1 477.168 31.29)" fill="white"/>
<rect width="2.09187" height="6.68677" transform="matrix(1 0 0 -1 455.595 28.6868)" fill="white"/>
<rect width="2.09187" height="3.98144" transform="matrix(1 0 0 -1 104.263 25.9814)" fill="#23AEFC"/>
<rect width="2.09187" height="19.0905" transform="matrix(1 0 0 -1 82.6908 41.0905)" fill="#23AEFC"/>
<rect width="2.09187" height="17.8144" transform="matrix(1 0 0 -1 140.217 39.8144)" fill="#23AEFC"/>
<rect width="2.09187" height="10.1067" transform="matrix(1 0 0 -1 86.2862 32.1067)" fill="#23AEFC"/>
<rect width="2.09187" height="16.4872" transform="matrix(1 0 0 -1 122.24 38.4872)" fill="#23AEFC"/>
<rect width="2.09187" height="22" transform="matrix(1 0 0 -1 111.454 44)" fill="#23AEFC"/>
<rect width="2.09187" height="18.3759" transform="matrix(1 0 0 -1 147.408 40.3759)" fill="#23AEFC"/>
<rect width="2.09187" height="16.4872" transform="matrix(1 0 0 -1 93.477 38.4872)" fill="#23AEFC"/>
<rect width="2.09187" height="20.6218" transform="matrix(1 0 0 -1 129.431 42.6218)" fill="#23AEFC"/>
<rect width="2.09187" height="13.5267" transform="matrix(1 0 0 -1 107.859 35.5267)" fill="#23AEFC"/>
<rect width="2.09187" height="12.4548" transform="matrix(1 0 0 -1 143.813 34.4548)" fill="#23AEFC"/>
<rect width="2.09187" height="13.5267" transform="matrix(1 0 0 -1 89.8816 35.5267)" fill="#23AEFC"/>
<rect width="2.09187" height="11.6891" transform="matrix(1 0 0 -1 125.836 33.6891)" fill="#23AEFC"/>
<rect width="2.09187" height="20.0093" transform="matrix(1 0 0 -1 115.049 42.0093)" fill="#23AEFC"/>
<rect width="2.09187" height="14.6496" transform="matrix(1 0 0 -1 97.0724 36.6496)" fill="#23AEFC"/>
<rect width="2.09187" height="11.6891" transform="matrix(1 0 0 -1 75.5 33.6891)" fill="#23AEFC"/>
<rect width="2.09187" height="13.5267" transform="matrix(1 0 0 -1 133.026 35.5267)" fill="#23AEFC"/>
<rect width="2.09187" height="11.6891" transform="matrix(1 0 0 -1 118.645 33.6891)" fill="#23AEFC"/>
<rect width="2.09187" height="9.29002" transform="matrix(1 0 0 -1 100.668 31.29)" fill="#23AEFC"/>
<rect width="2.09187" height="6.68677" transform="matrix(1 0 0 -1 79.0954 28.6868)" fill="#23AEFC"/>
<rect width="2.09187" height="10.1067" transform="matrix(1 0 0 -1 136.622 32.1067)" fill="#23AEFC"/>
<rect width="2.09187" height="3.98144" transform="matrix(1 0 0 -1 330.263 25.9814)" fill="white"/>
<rect width="2.09187" height="19.0905" transform="matrix(1 0 0 -1 308.691 41.0905)" fill="white"/>
<rect width="2.09187" height="17.8144" transform="matrix(1 0 0 -1 366.217 39.8144)" fill="white"/>
<rect width="2.09187" height="10.1067" transform="matrix(1 0 0 -1 312.286 32.1067)" fill="white"/>
<rect width="2.09187" height="16.4872" transform="matrix(1 0 0 -1 348.24 38.4872)" fill="white"/>
<rect width="2.09187" height="22" transform="matrix(1 0 0 -1 337.454 44)" fill="white"/>
<rect width="2.09187" height="18.3759" transform="matrix(1 0 0 -1 373.408 40.3759)" fill="white"/>
<rect width="2.09187" height="16.4872" transform="matrix(1 0 0 -1 319.477 38.4872)" fill="white"/>
<rect width="2.09187" height="20.6218" transform="matrix(1 0 0 -1 355.431 42.6218)" fill="white"/>
<rect width="2.09187" height="13.5267" transform="matrix(1 0 0 -1 333.859 35.5267)" fill="white"/>
<rect width="2.09187" height="12.4548" transform="matrix(1 0 0 -1 369.813 34.4548)" fill="white"/>
<rect width="2.09187" height="13.5267" transform="matrix(1 0 0 -1 315.882 35.5267)" fill="white"/>
<rect width="2.09187" height="11.6891" transform="matrix(1 0 0 -1 351.836 33.6891)" fill="white"/>
<rect width="2.09187" height="20.0093" transform="matrix(1 0 0 -1 341.049 42.0093)" fill="white"/>
<rect width="2.09187" height="14.6496" transform="matrix(1 0 0 -1 323.072 36.6496)" fill="white"/>
<rect width="2.09187" height="11.6891" transform="matrix(1 0 0 -1 301.5 33.6891)" fill="white"/>
<rect width="2.09187" height="13.5267" transform="matrix(1 0 0 -1 359.026 35.5267)" fill="white"/>
<rect width="2.09187" height="11.6891" transform="matrix(1 0 0 -1 344.645 33.6891)" fill="white"/>
<rect width="2.09187" height="9.29002" transform="matrix(1 0 0 -1 326.668 31.29)" fill="white"/>
<rect width="2.09187" height="6.68677" transform="matrix(1 0 0 -1 305.095 28.6868)" fill="white"/>
<rect width="2.09187" height="10.1067" transform="matrix(1 0 0 -1 362.622 32.1067)" fill="white"/>
<rect width="2.09187" height="3.98144" transform="matrix(1 0 0 -1 255.263 25.9814)" fill="white"/>
<rect width="2.09187" height="19.0905" transform="matrix(1 0 0 -1 233.691 41.0905)" fill="white"/>
<rect width="2.09187" height="17.8144" transform="matrix(1 0 0 -1 291.217 39.8144)" fill="white"/>
<rect width="2.09187" height="10.1067" transform="matrix(1 0 0 -1 237.286 32.1067)" fill="white"/>
<rect width="2.09187" height="16.4872" transform="matrix(1 0 0 -1 273.24 38.4872)" fill="white"/>
<rect width="2.09187" height="22" transform="matrix(1 0 0 -1 262.454 44)" fill="white"/>
<rect width="2.09187" height="18.3759" transform="matrix(1 0 0 -1 298.408 40.3759)" fill="white"/>
<rect width="2.09187" height="16.4872" transform="matrix(1 0 0 -1 244.477 38.4872)" fill="white"/>
<rect width="2.09187" height="20.6218" transform="matrix(1 0 0 -1 280.431 42.6218)" fill="white"/>
<rect width="2.09187" height="13.5267" transform="matrix(1 0 0 -1 258.859 35.5267)" fill="white"/>
<rect width="2.09187" height="12.4548" transform="matrix(1 0 0 -1 294.813 34.4548)" fill="white"/>
<rect width="2.09187" height="13.5267" transform="matrix(1 0 0 -1 240.882 35.5267)" fill="white"/>
<rect width="2.09187" height="11.6891" transform="matrix(1 0 0 -1 276.836 33.6891)" fill="white"/>
<rect width="2.09187" height="20.0093" transform="matrix(1 0 0 -1 266.049 42.0093)" fill="white"/>
<rect width="2.09187" height="14.6496" transform="matrix(1 0 0 -1 248.072 36.6496)" fill="white"/>
<rect width="2.09187" height="11.6891" transform="matrix(1 0 0 -1 226.5 33.6891)" fill="white"/>
<rect width="2.09187" height="13.5267" transform="matrix(1 0 0 -1 284.026 35.5267)" fill="white"/>
<rect width="2.09187" height="11.6891" transform="matrix(1 0 0 -1 269.645 33.6891)" fill="white"/>
<rect width="2.09187" height="9.29002" transform="matrix(1 0 0 -1 251.668 31.29)" fill="white"/>
<rect width="2.09187" height="6.68677" transform="matrix(1 0 0 -1 230.095 28.6868)" fill="white"/>
<rect width="2.09187" height="10.1067" transform="matrix(1 0 0 -1 287.622 32.1067)" fill="white"/>
</svg>
